<?xml version="1.0" standalone="no"?>
<!DOCTYPE svg PUBLIC "-//W3C//DTD SVG 20010904//EN"
 "http://www.w3.org/TR/2001/REC-SVG-20010904/DTD/svg10.dtd">
<svg version="1.0" xmlns="http://www.w3.org/2000/svg"
 width="627.000000pt" height="626.000000pt" viewBox="0 0 627.000000 626.000000"
 preserveAspectRatio="xMidYMid meet">

<g transform="translate(0.000000,626.000000) scale(0.100000,-0.100000)"
fill="#029875" stroke="none">
<path d="M2920 6254 c-14 -3 -108 -16 -210 -29 -233 -31 -466 -87 -650 -157
-169 -64 -424 -182 -460 -213 -8 -7 -31 -21 -50 -30 -115 -58 -355 -234 -500
-364 -118 -107 -144 -133 -251 -251 -142 -157 -221 -268 -392 -545 -83 -135
-197 -398 -265 -615 -108 -345 -165 -837 -132 -1143 47 -445 124 -740 281
-1087 201 -441 548 -874 942 -1173 133 -101 308 -214 417 -269 25 -13 47 -25
50 -28 11 -12 238 -111 350 -153 312 -119 742 -197 1080 -197 286 0 669 61
945 150 189 61 408 154 540 230 28 16 61 34 75 42 65 33 359 232 380 257 3 3
30 26 60 51 143 115 312 289 444 454 343 429 570 951 645 1476 38 271 44 349
38 534 -12 395 -96 793 -239 1131 -34 81 -102 230 -108 235 -3 3 -15 25 -28
50 -113 224 -336 523 -542 730 -103 103 -280 254 -376 320 -70 49 -235 157
-269 176 -490 277 -987 412 -1540 420 -115 1 -221 0 -235 -2z m624 -153 c157
-24 144 -22 291 -57 357 -85 714 -246 1015 -459 47 -33 92 -65 100 -71 219
-175 401 -357 564 -564 131 -167 292 -445 385 -665 74 -175 165 -490 190 -660
5 -38 16 -108 23 -155 20 -133 17 -566 -5 -715 -55 -372 -141 -652 -293 -958
-55 -111 -152 -282 -186 -327 -10 -14 -46 -63 -80 -110 -35 -47 -84 -112 -111
-145 -75 -92 -272 -288 -274 -273 -2 7 -17 101 -33 208 -53 343 -120 580 -222
790 -49 102 -71 134 -119 181 -55 53 -132 105 -201 136 -15 6 -42 19 -60 27
-88 40 -322 132 -468 183 -25 9 -62 27 -82 40 -21 12 -41 23 -46 23 -23 0
-132 103 -132 125 0 8 30 58 66 112 99 147 154 265 195 417 10 38 27 82 38 97
26 35 58 135 76 238 18 103 19 161 2 226 -12 43 -11 66 5 175 46 304 -7 561
-153 738 -69 83 -193 182 -288 228 -170 83 -593 206 -711 207 -53 0 -182 -16
-221 -27 -53 -16 -166 -73 -225 -113 -23 -15 -59 -40 -80 -54 -21 -15 -79 -69
-129 -120 -99 -103 -166 -209 -210 -329 -25 -68 -28 -91 -33 -246 -2 -101 0
-213 7 -272 11 -96 11 -103 -10 -143 -47 -94 -20 -338 55 -489 18 -36 41 -99
51 -140 32 -130 100 -279 185 -402 28 -40 50 -77 50 -83 0 -20 -54 -84 -95
-111 -100 -67 -301 -158 -505 -229 -205 -70 -276 -108 -399 -211 -62 -52 -166
-258 -224 -444 -51 -163 -91 -345 -123 -563 l-28 -188 -99 98 c-321 318 -567
720 -716 1172 -61 184 -94 326 -128 556 -22 149 -25 582 -5 715 7 47 18 117
23 155 26 171 117 490 189 656 60 139 156 326 223 434 33 53 147 216 156 225
4 3 19 23 35 44 61 81 199 229 322 346 58 55 106 96 214 183 52 43 200 142
280 190 386 226 751 350 1200 407 137 17 164 18 395 15 157 -3 260 -10 359
-24z m-344 -1197 c144 -34 389 -118 480 -164 79 -40 178 -120 231 -186 46 -58
94 -159 115 -244 23 -96 24 -287 0 -379 -28 -108 -31 -163 -11 -201 20 -39 22
-116 5 -193 -24 -113 -34 -143 -57 -174 -14 -18 -35 -74 -49 -128 -13 -53 -33
-113 -43 -133 -10 -20 -21 -47 -25 -58 -4 -12 -27 -57 -51 -99 -189 -332 -493
-531 -743 -486 -192 34 -398 202 -538 439 -56 93 -128 273 -145 362 -7 36 -23
81 -35 100 -70 108 -97 326 -46 380 26 29 28 68 7 220 -26 189 -17 351 26 464
38 102 155 255 251 328 16 13 42 32 56 44 37 29 173 103 214 115 49 16 157 27
208 22 25 -2 92 -15 150 -29z m-539 -2416 c91 -73 159 -115 244 -149 69 -28
95 -33 190 -37 197 -7 329 42 527 197 14 12 32 21 40 21 7 0 44 -22 80 -50 37
-27 69 -50 72 -50 2 0 32 -16 65 -36 34 -20 134 -65 224 -99 538 -207 572
-229 669 -426 106 -216 186 -527 223 -869 8 -74 18 -147 21 -162 4 -20 0 -30
-20 -45 -15 -10 -60 -44 -102 -75 -42 -32 -99 -71 -128 -88 -28 -17 -80 -49
-116 -72 -63 -39 -273 -146 -356 -180 -98 -40 -224 -88 -233 -88 -5 0 -52 -13
-103 -29 -504 -156 -1152 -156 -1656 0 -51 16 -97 29 -103 29 -45 0 -463 190
-589 267 -25 16 -60 37 -79 48 -31 18 -141 96 -244 171 -31 23 -42 38 -40 55
10 163 66 518 105 659 44 163 82 270 135 378 86 173 162 234 398 315 346 120
542 217 644 321 34 34 59 52 65 47 6 -4 36 -28 67 -53z"/>
</g>
</svg>
