<?xml version="1.0" standalone="no"?>
<!DOCTYPE svg PUBLIC "-//W3C//DTD SVG 20010904//EN"
 "http://www.w3.org/TR/2001/REC-SVG-20010904/DTD/svg10.dtd">
<svg version="1.0" xmlns="http://www.w3.org/2000/svg"
 width="760.000000pt" height="768.000000pt" viewBox="0 0 760.000000 768.000000"
 preserveAspectRatio="xMidYMid meet">

<g transform="translate(0.000000,768.000000) scale(0.100000,-0.100000)"
fill="#0f314d" stroke="none">
<path d="M3520 7664 c-19 -3 -93 -11 -165 -19 -1083 -120 -2106 -760 -2718
-1701 -262 -403 -436 -816 -536 -1274 -336 -1533 273 -3099 1554 -3995 504
-352 1092 -575 1725 -651 202 -25 637 -25 845 -1 650 77 1257 312 1780 690
779 564 1316 1389 1514 2325 62 293 75 431 75 802 0 370 -13 511 -74 797 -237
1112 -938 2051 -1935 2590 -399 216 -846 359 -1310 419 -114 15 -669 28 -755
18z m720 -307 c636 -91 1171 -310 1660 -680 741 -561 1243 -1408 1374 -2317
41 -290 46 -690 12 -970 -81 -653 -345 -1271 -772 -1807 -105 -131 -383 -408
-519 -517 -530 -422 -1124 -672 -1787 -753 -198 -24 -599 -24 -798 1 -1004
122 -1877 647 -2470 1486 -412 583 -640 1309 -640 2040 0 1254 650 2403 1727
3052 420 253 926 422 1414 473 173 18 649 13 799 -8z"/>
<path d="M3479 6888 c-178 -115 -385 -249 -459 -297 -74 -48 -326 -211 -559
-362 l-424 -274 902 -3 c495 -1 1307 -1 1802 0 l902 3 -474 294 c-261 162
-611 380 -779 484 -168 105 -343 214 -390 242 -47 29 -110 68 -141 87 l-55 36
-325 -210z"/>
<path d="M1530 5650 l0 -180 2270 0 2270 0 0 180 0 180 -2270 0 -2270 0 0
-180z"/>
<path d="M1950 5155 l0 -175 450 0 450 0 0 175 0 175 -450 0 -450 0 0 -175z"/>
<path d="M3390 5155 l0 -175 445 0 445 0 0 175 0 175 -445 0 -445 0 0 -175z"/>
<path d="M4820 5155 l0 -175 445 0 445 0 0 175 0 175 -445 0 -445 0 0 -175z"/>
<path d="M2100 3770 l0 -1120 315 0 315 0 0 1120 0 1120 -315 0 -315 0 0
-1120z"/>
<path d="M3520 3770 l0 -1120 310 0 310 0 0 1120 0 1120 -310 0 -310 0 0
-1120z"/>
<path d="M4952 3773 l3 -1118 313 -3 312 -2 0 1120 0 1120 -315 0 -315 0 2
-1117z"/>
<path d="M1530 2295 l0 -245 2270 0 2270 0 0 245 0 245 -2270 0 -2270 0 0
-245z"/>
<path d="M1280 1745 l0 -235 2523 2 2522 3 0 230 0 230 -2522 3 -2523 2 0
-235z"/>
</g>
</svg>
