<?xml version="1.0" standalone="no"?>
<!DOCTYPE svg PUBLIC "-//W3C//DTD SVG 20010904//EN"
 "http://www.w3.org/TR/2001/REC-SVG-20010904/DTD/svg10.dtd">
<svg version="1.0" xmlns="http://www.w3.org/2000/svg"
 width="1418.000000pt" height="709.000000pt" viewBox="0 0 1418.000000 709.000000"
 preserveAspectRatio="xMidYMid meet">

<g transform="translate(0.000000,709.000000) scale(0.100000,-0.100000)"
fill="#000000" stroke="none">
<path d="M3235 5829 c-864 -88 -1458 -525 -1699 -1249 -72 -216 -104 -403
-122 -713 l-6 -108 -40 -20 c-58 -30 -126 -102 -156 -167 -27 -57 -27 -57 -30
-340 -3 -306 2 -351 53 -432 35 -55 110 -117 174 -141 49 -20 81 -23 258 -27
l201 -4 7 -27 c4 -14 26 -77 51 -139 218 -558 626 -970 1124 -1136 459 -152
954 -84 1360 187 345 229 621 597 771 1026 l32 91 146 0 c235 0 325 24 411
110 95 95 115 190 108 529 -4 203 -7 232 -27 283 -23 61 -96 150 -140 173 -26
13 -27 16 -39 166 -41 497 -181 905 -417 1218 -317 419 -782 658 -1404 721
-119 12 -498 11 -616 -1z m660 -254 c249 -35 420 -86 620 -185 542 -267 856
-790 921 -1532 l7 -78 -91 0 -90 0 -7 33 c-17 82 -71 261 -107 352 -257 648
-757 1083 -1362 1187 -103 17 -148 19 -296 15 -244 -8 -400 -45 -620 -149
-156 -73 -312 -182 -444 -308 -189 -182 -308 -344 -421 -574 -65 -131 -152
-376 -176 -493 l-13 -63 -99 0 -99 0 6 98 c12 164 26 272 52 391 113 510 401
891 839 1111 66 33 175 78 243 100 186 62 305 84 607 114 79 8 432 -4 530 -19z
m-980 -1120 c64 -82 214 -232 305 -305 248 -198 558 -338 897 -405 l32 -6 -49
146 c-27 81 -44 144 -37 142 7 -3 69 -31 140 -61 70 -31 205 -86 300 -122 94
-36 240 -95 324 -131 l151 -65 8 -52 c13 -95 7 -435 -10 -565 -60 -448 -215
-802 -469 -1067 -196 -205 -412 -331 -671 -392 -94 -21 -134 -25 -266 -25
-109 0 -179 5 -235 17 -271 59 -507 185 -716 384 -87 83 -225 240 -217 247 2
1 56 -8 122 -21 180 -36 345 -54 501 -54 l140 0 20 -36 c60 -113 257 -178 420
-140 86 21 141 52 193 111 108 122 59 283 -110 360 -183 83 -412 32 -504 -112
l-29 -46 -130 6 c-328 15 -601 133 -817 354 -132 134 -118 93 -155 457 -18
177 -32 339 -32 361 l-1 40 193 100 c297 154 383 220 456 348 46 81 104 260
181 556 6 24 15 40 19 35 4 -5 25 -31 46 -59z"/>
<path d="M2815 3523 c-114 -60 -155 -179 -99 -292 45 -89 147 -137 241 -112
155 42 214 229 110 347 -44 51 -96 74 -164 74 -33 -1 -71 -8 -88 -17z"/>
<path d="M4059 3520 c-199 -105 -128 -405 96 -405 197 0 289 238 144 370 -22
20 -51 40 -65 45 -42 16 -135 11 -175 -10z"/>
<path d="M8819 4520 c-273 -32 -552 -198 -712 -422 -251 -352 -260 -840 -22
-1198 65 -97 201 -233 293 -294 280 -185 681 -215 989 -76 37 17 67 29 68 28
1 -2 39 -51 85 -110 l83 -108 219 0 c173 0 218 3 212 13 -5 6 -76 100 -159
207 -83 107 -154 201 -159 208 -4 8 12 37 44 80 66 87 144 246 170 347 80 313
26 635 -150 889 -60 87 -189 214 -279 275 -193 132 -438 189 -682 161z m286
-380 c112 -29 196 -79 290 -174 136 -138 195 -283 195 -484 0 -62 -7 -131 -16
-172 -19 -76 -84 -215 -101 -215 -6 0 -48 48 -93 108 l-83 107 -166 1 c-91 0
-191 1 -223 2 -35 1 -54 -2 -50 -8 3 -5 79 -104 168 -220 90 -115 164 -214
165 -220 2 -15 -85 -44 -169 -56 -200 -28 -420 54 -565 211 -66 71 -107 141
-139 235 -20 62 -23 88 -22 230 0 147 2 166 26 233 76 213 241 367 450 422 99
26 232 26 333 0z"/>
<path d="M12284 4516 c-111 -21 -198 -68 -279 -150 -111 -112 -152 -219 -142
-371 12 -190 111 -326 438 -604 316 -269 373 -350 326 -464 -18 -42 -85 -101
-132 -117 -58 -19 -164 -8 -217 23 -54 31 -135 116 -172 180 l-28 47 -37 -22
c-228 -137 -270 -164 -271 -173 0 -26 123 -196 184 -253 124 -115 258 -165
446 -166 198 0 326 49 446 168 112 112 155 221 156 393 0 231 -70 336 -436
652 -271 234 -321 285 -337 344 -27 100 83 186 208 162 64 -12 115 -45 190
-122 l73 -74 130 116 c71 65 130 123 130 130 0 19 -163 171 -232 215 -122 79
-300 113 -444 86z"/>
<path d="M6460 3485 l0 -995 185 0 185 0 2 423 3 422 160 6 c98 4 185 13 225
24 156 40 291 147 354 278 104 217 63 508 -94 666 -135 136 -297 171 -797 171
l-223 0 0 -995z m654 610 c75 -20 109 -45 135 -98 35 -72 23 -175 -27 -230
-43 -48 -89 -60 -244 -65 l-148 -4 0 206 0 206 113 0 c69 0 136 -6 171 -15z"/>
<path d="M10360 3485 l0 -995 185 0 185 0 0 419 c0 281 3 422 10 426 6 4 17 2
24 -4 7 -6 112 -198 232 -426 l219 -415 203 0 c111 0 202 1 202 3 0 2 -103
198 -230 437 -126 239 -230 437 -230 440 0 3 30 21 68 39 195 95 288 238 299
456 15 292 -139 522 -388 579 -95 23 -305 36 -556 36 l-223 0 0 -995z m650
614 c97 -22 152 -86 158 -183 3 -49 -1 -70 -20 -106 -43 -83 -120 -110 -316
-110 l-102 0 0 205 0 205 118 0 c64 0 137 -5 162 -11z"/>
</g>
</svg>
